<svg width="360" height="360" xmlns="http://www.w3.org/2000/svg">
 <defs>
  <linearGradient id="linearGradientSkdv1wcvr1fq" y2="0.5" x2="1" y1="0.5" x1="0">
   <stop stop-color="#109e92" offset="0%"/>
   <stop stop-color="#109e92" offset="100%"/>
  </linearGradient>
  <linearGradient id="linearGradientSkdv1wcvr1ft" y2="0.5" x2="1" y1="0.5" x1="0">
   <stop stop-color="#33364d" offset="0%"/>
   <stop stop-color="#33364d" offset="100%"/>
  </linearGradient>
  <linearGradient id="linearGradientSkdv1wcvr1fw" y2="0.5" x2="1" y1="0.5" x1="0">
   <stop stop-color="#109e92" offset="0%"/>
   <stop stop-color="#109e92" offset="100%"/>
  </linearGradient>
  <linearGradient id="linearGradientSkdv1wcvr1fz" y2="0.5" x2="1" y1="0.5" x1="0">
   <stop stop-color="#33364d" offset="0%"/>
   <stop stop-color="#33364d" offset="100%"/>
  </linearGradient>
  <linearGradient id="linearGradientSkdv1wcvr1g2" y2="0.5" x2="1" y1="0.5" x1="0">
   <stop stop-color="#109e92" offset="0%"/>
   <stop stop-color="#109e92" offset="100%"/>
  </linearGradient>
  <linearGradient id="linearGradientSkdv1wcvr1g5" y2="0.5" x2="1" y1="0.5" x1="0">
   <stop stop-color="#33364d" offset="0%"/>
   <stop stop-color="#33364d" offset="100%"/>
  </linearGradient>
  <linearGradient id="linearGradientSkdv1wcvr1g8" y2="0.5" x2="1" y1="0.5" x1="0">
   <stop stop-color="#33364d" offset="0%"/>
   <stop stop-color="#33364d" offset="100%"/>
  </linearGradient>
  <linearGradient id="linearGradientSkdv1wcvr1gb" y2="0.5" x2="1" y1="0.5" x1="0">
   <stop stop-color="#109e92" offset="0%"/>
   <stop stop-color="#109e92" offset="100%"/>
  </linearGradient>
  <linearGradient id="linearGradientSkdv1wcvr1gh" y2="0.5" x2="1" y1="0.5" x1="0">
   <stop stop-color="#33364d" offset="0%"/>
   <stop stop-color="#33364d" offset="100%"/>
  </linearGradient>
 </defs>
 <g>
  <rect fill="none" id="canvas_background" height="362" width="362" y="-1" x="-1"/>
 </g>
 <g>
  <g id="svg_15" transform="matrix(1,0,0,1,982,585) " class="selector-part">
   <rect id="svg_16" fill="rgba(255,255,255,0)" height="0" width="0" y="0" x="26"/>
  </g>
  <g id="svg_17" transform="matrix(0.2533,0,0,0.2533,1030.8342,377.0173) " class="svg-clip svg-visible">
   <rect id="svg_18" class="svg-hitbox" fill="none" height="292" width="554" y="-1429.13538" x="-3722.85833"/>
   <g id="svg_1">
    <svg y="-1429.13538" x="-3722.85833" id="svg_19" viewBox="127,120.30000000000001,554.9032289391143,292.04092119557384" height="292.04092" width="554.90323">
     <g id="svg_20"/>
     <g id="svg_21">
      <path id="svg_22" fill="url('#linearGradientSkdv1wcvr1fq')" d="m661.8,226l-24.8,-10.7c-12.6,-5.4 -27.4,0.4 -32.8,13l-36.9,85.7l-297.5,-128.1c-4.2,-34.1 -33.4,-60.6 -68.6,-60.6c-38.1,0 -69.2,31 -69.2,69.1c0,38.1 31,69.2 69.2,69.2c12.3,0 23.9,-3.2 33.9,-8.9l322.4,138.9l27.1,11.7c10.8,4.7 23.3,1 30,-8.2c1.1,-1.5 2,-3.1 2.7,-4.8l11.1,-25.7l0.2,-0.4l46.3,-107.5c5.4,-12.5 -0.5,-27.2 -13.1,-32.7zm-460.6,5.9c-2.4,0 -4.7,-0.2 -7,-0.7c-17.3,-3.3 -30.4,-18.5 -30.4,-36.8c0,-20.6 16.8,-37.4 37.4,-37.4c11.2,0 21.2,4.9 28,12.7c5.8,6.6 9.4,15.3 9.4,24.8c0,20.6 -16.8,37.4 -37.4,37.4z"/>
     </g>
    </svg>
   </g>
  </g>
  <g id="svg_23" transform="matrix(0.2533,0,0,0.2533,1094.1496,381.002) " class="svg-clip svg-visible">
   <rect id="svg_24" class="svg-hitbox" fill="none" height="150" width="212" y="-1429.13538" x="-3722.85833"/>
   <g id="svg_2">
    <svg y="-1429.13538" x="-3722.85833" id="svg_25" viewBox="375.6295371903995,135.22953719039953,212.44092561920087,150.54092561920095" height="150.54093" width="212.44093">
     <g id="svg_26"/>
     <g id="svg_27">
      <path id="svg_28" fill="url('#linearGradientSkdv1wcvr1ft')" d="m545.3,279.8l-157.4,-67.8c-6.1,-2.6 -8.9,-9.7 -6.3,-15.8l21,-48.7c2.6,-6.1 9.7,-8.9 15.8,-6.3l157.4,67.8c6.1,2.6 8.9,9.7 6.3,15.8l-21,48.7c-2.6,6.1 -9.7,8.9 -15.8,6.3z"/>
     </g>
    </svg>
   </g>
  </g>
  <g id="svg_29" transform="matrix(0.2533,0,0,0.2533,1179.1287,442.1496) " class="svg-clip svg-visible">
   <rect id="svg_30" class="svg-hitbox" fill="none" height="212" width="149" y="-1429.13538" x="-3722.85833"/>
   <g id="svg_3">
    <svg y="-1429.13538" x="-3722.85833" id="svg_31" viewBox="711.5437499999999,379.4295371903995,149.7267128096006,212.3409256192009" height="212.34093" width="149.72671">
     <g id="svg_32"/>
     <g id="svg_33">
      <path id="svg_34" fill="url('#linearGradientSkdv1wcvr1fw')" d="m717.5,549.4l67.1,-157.7c2.6,-6.1 9.7,-8.9 15.7,-6.3l48.7,20.7c6.1,2.6 8.9,9.7 6.3,15.7l-67.1,157.7c-2.6,6.1 -9.7,8.9 -15.7,6.3l-48.7,-20.7c-6,-2.6 -8.9,-9.7 -6.3,-15.7z"/>
     </g>
    </svg>
   </g>
  </g>
  <g id="svg_35" transform="matrix(0.2533,0,0,0.2533,1102.1496,528.1287) " class="svg-clip svg-visible">
   <rect id="svg_36" class="svg-hitbox" fill="none" height="149" width="212" y="-1429.13538" x="-3722.85833"/>
   <g id="svg_4">
    <svg y="-1429.13538" x="-3722.85833" id="svg_37" viewBox="406.64530655198325,716.8453065519834,212.50938689603333,149.20938689603315" height="149.20939" width="212.50939">
     <g id="svg_38"/>
     <g id="svg_39">
      <path id="svg_40" fill="url('#linearGradientSkdv1wcvr1fz')" d="m448.8,722.8l158,66.4c6.1,2.6 9,9.6 6.4,15.7l-20.5,48.8c-2.6,6.1 -9.6,9 -15.7,6.4l-158,-66.4c-6.1,-2.6 -9,-9.6 -6.4,-15.7l20.5,-48.8c2.5,-6.1 9.6,-9 15.7,-6.4z"/>
     </g>
    </svg>
   </g>
  </g>
  <g id="svg_41" transform="matrix(0.2533,0,0,0.2533,1032.2554,451.1496) " class="svg-clip svg-visible">
   <rect id="svg_42" class="svg-hitbox" fill="none" height="212" width="148" y="-1429.13538" x="-3722.85833"/>
   <g id="svg_5">
    <svg y="-1429.13538" x="-3722.85833" id="svg_43" viewBox="131.40252152793687,413.0025215279368,148.650627141879,212.49495694412644" height="212.49496" width="148.65063">
     <g id="svg_44"/>
     <g id="svg_45">
      <path id="svg_46" fill="url('#linearGradientSkdv1wcvr1g2')" d="m274.1,454.8l-65.7,158.3c-2.5,6.1 -9.6,9 -15.7,6.5l-48.9,-20.3c-6.1,-2.5 -9,-9.6 -6.5,-15.7l65.7,-158.2c2.5,-6.1 9.6,-9 15.7,-6.5l48.9,20.3c6.2,2.5 9.1,9.5 6.5,15.6z"/>
     </g>
    </svg>
   </g>
  </g>
  <g id="svg_47" transform="matrix(0.2533,0,0,0.2533,1147.5239,378.4543) " class="svg-clip svg-visible">
   <rect id="svg_48" class="svg-hitbox" fill="none" height="557" width="288" y="-1429.13538" x="-3722.85833"/>
   <g id="svg_6">
    <svg y="-1429.13538" x="-3722.85833" id="svg_49" viewBox="585.1665282064137,128,288.13347179358686,557.6875000000005" height="557.6875" width="288.13347">
     <g id="svg_50"/>
     <g id="svg_51">
      <path id="svg_52" fill="url('#linearGradientSkdv1wcvr1g5')" d="m798.8,133c-38.1,0 -69.2,31 -69.2,69.1c0,13.9 4.1,26.8 11.2,37.6l-137.1,322.3l-11.5,27.1c-1.5,3.6 -2.2,7.4 -2,11.1c0,0.2 0,0.5 0.1,0.7c0,0.3 0,0.5 0.1,0.8c0,0 0,0.1 0,0.1c0.1,0.4 0.1,0.9 0.2,1.3c0.1,0.4 0.1,0.8 0.2,1.2c0,0.2 0.1,0.4 0.2,0.6c0.1,0.4 0.2,0.7 0.3,1c0.1,0.4 0.2,0.8 0.4,1.2c0,0.2 0.1,0.3 0.2,0.5c0.1,0.4 0.3,0.8 0.5,1.1c0.2,0.4 0.3,0.7 0.5,1.1c0.1,0.2 0.2,0.5 0.4,0.7c0,0.1 0.1,0.2 0.1,0.3c0.2,0.3 0.3,0.6 0.5,0.8c0.1,0.3 0.3,0.5 0.5,0.7c0.2,0.3 0.4,0.7 0.7,1c0.2,0.2 0.3,0.5 0.5,0.7c0.3,0.3 0.5,0.6 0.8,1c0.2,0.2 0.3,0.4 0.5,0.6c0.1,0.1 0.1,0.1 0.2,0.2c0.1,0.1 0.1,0.1 0.2,0.2c0.1,0.1 0.1,0.1 0.1,0.1c0.7,0.7 1.4,1.4 2.2,2c0,0 0,0 0,0c0.4,0.3 0.8,0.6 1.2,0.9c1.5,1.1 3.1,2 4.8,2.7l25,10.7l1.2,0.5l107.7,45.8c12.6,5.4 27.4,-0.6 32.7,-13.2l10.6,-24.9c5.4,-12.6 -0.6,-27.3 -13.2,-32.7l-85.9,-36.5l128.2,-301.3c32.1,-6 56.4,-34.2 56.4,-68c-0.3,-38.1 -31.3,-69.1 -69.5,-69.1zm27.3,94.7c-6.8,7.3 -16.5,11.8 -27.3,11.8c-20.6,0 -37.4,-16.8 -37.4,-37.4c0,-0.7 0,-1.5 0.1,-2.2l0,0c1.1,-19.6 17.4,-35.2 37.4,-35.2c20.6,0 37.4,16.8 37.4,37.4c0,9.9 -3.9,18.9 -10.2,25.6z"/>
     </g>
    </svg>
   </g>
  </g>
  <g id="svg_53" transform="matrix(0.2533,0,0,0.2533,1030.6638,427.201) " class="svg-clip svg-visible">
   <rect id="svg_54" class="svg-hitbox" fill="none" height="559" width="279" y="-1429.13538" x="-3722.85833"/>
   <g id="svg_7">
    <svg y="-1429.13538" x="-3722.85833" id="svg_55" viewBox="127,318.7867652702998,279.14686465675226,559.0132347297003" height="559.01323" width="279.14686">
     <g id="svg_56"/>
     <g id="svg_57">
      <path id="svg_58" fill="url('#linearGradientSkdv1wcvr1g8')" d="m392.1,385.2c-1.9,-1.6 -4,-2.9 -6.3,-3.8l-26,-10.8l-0.3,-0.1l-108.1,-44.8c-12.7,-5.3 -27.4,0.8 -32.6,13.5l-10.4,25c-5.3,12.7 0.8,27.4 13.5,32.6l86.2,35.8l-126.4,304.6c-28.7,8.4 -49.7,35 -49.7,66.4c0,38.1 31,69.2 69.2,69.2c38.1,0 69.2,-31 69.2,-69.2c0,-16.2 -5.6,-31.1 -15,-42.9l132.5,-319.5c0.4,-0.7 0.7,-1.4 1,-2.1l10.4,-25c4.2,-10.4 1,-22.1 -7.2,-28.9zm-190.9,455.8c-20.6,0 -37.4,-16.8 -37.4,-37.4c0,-7.6 2.3,-14.6 6.1,-20.5c6.7,-10.2 18.2,-16.9 31.3,-16.9c19.3,0 35.2,14.7 37.2,33.5l0,0c0.1,1.3 0.2,2.6 0.2,3.9c0,20.6 -16.8,37.4 -37.4,37.4z"/>
     </g>
    </svg>
   </g>
  </g>
  <g id="svg_59" transform="matrix(0.2533,0,0,0.2533,1077.5809,496.3973) " class="svg-clip svg-visible">
   <rect id="svg_60" class="svg-hitbox" fill="none" height="289" width="556" y="-1429.13538" x="-3722.85833"/>
   <g id="svg_8">
    <svg y="-1429.13538" x="-3722.85833" id="svg_61" viewBox="312.57007822564003,590.6943887161921,556.62992177436,289.005611283808" height="289.00561" width="556.62992">
     <g id="svg_62"/>
     <g id="svg_63">
      <path id="svg_64" fill="url('#linearGradientSkdv1wcvr1gb')" d="m795,736.3c-12.5,0 -24.3,3.4 -34.5,9.2l-325,-136.5l-27.1,-11.4c-9.7,-4 -20.6,-1.5 -27.5,5.6c-2.1,2.2 -3.9,4.7 -5.1,7.7l-10.8,25.7l-45.5,108.4c-5.3,12.7 0.7,27.4 13.3,32.7l24.9,10.5c12.7,5.3 27.4,-0.7 32.7,-13.3l36.2,-86.1l299.9,126c4.5,33.8 33.5,59.9 68.5,59.9c38.1,0 69.2,-31 69.2,-69.2c0,-38.1 -31,-69.2 -69.2,-69.2zm0,106.6c-11.3,0 -21.4,-5 -28.2,-12.9l0,0c-5.7,-6.6 -9.2,-15.2 -9.2,-24.5c0,-20.6 16.8,-37.4 37.4,-37.4c1.9,0 3.7,0.1 5.6,0.4c18,2.7 31.9,18.3 31.9,37c0,20.6 -16.8,37.4 -37.5,37.4z"/>
     </g>
    </svg>
   </g>
  </g>
  <g id="svg_65" transform="matrix(1.0662,0,0,1.0662,1125,590) " class="svg-text svg-visible">
   <path id="svg_66" d="m-1018.64948,-238.52353c114.2,-1 154.2,-1 268.4,0" fill="none"/>
   <path id="svg_67" fill="url('#linearGradientSkdv1wcvr1gh')" d="m-979.24948,-289.37353l-4,3.8q15.3,14.7 21.7,22.1l0,0q3.3,3.7 3.3,6.25q0,2.55 -4,6q-4,3.45 -6.55,3.45q-2.55,0 -6.15,-4.2l0,0l-22,-25.1l0,19.5q0,2.4 -0.15,3.5q-0.15,1.1 -0.95,2.6l0,0q-1.4,2.7 -7.8,2.7l0,0q-7,0 -8.2,-3.8l0,0q-0.6,-1.6 -0.6,-5.1l0,0l0,-55.6q0,-2.3 0.15,-3.45q0.15,-1.15 0.95,-2.65l0,0q1.4,-2.7 7.8,-2.7l0,0q7,0 8.3,3.7l0,0q0.5,1.7 0.5,5.2l0,0l0,19.1q13.6,-15.3 22,-25.1l0,0q3.5,-4.1 6.1,-4.1q2.6,0 6.6,3.45q4,3.45 4,6q0,2.55 -3,6.05l0,0q-5.8,6.7 -18,18.4l0,0zm75.3,7.95q0,6.15 -3.05,9.1q-3.05,2.95 -6.75,2.95l0,0l-23.7,0q0,2.8 3.3,4.7q3.3,1.9 6.6,1.9l0,0q5.8,0 9.1,-1.2l0,0l1.1,-0.4q2.4,-1.1 4,-1.1l0,0q3.2,0 5.5,4.5l0,0q1.3,2.7 1.3,4.6l0,0q0,8.9 -21.3,8.9l0,0q-7.4,0 -13.15,-2.55q-5.75,-2.55 -8.95,-6.75l0,0q-6.3,-8.1 -6.3,-18.1l0,0q0,-12.6 8.15,-20.15q8.15,-7.55 20.35,-7.55l0,0q13.9,0 20.4,9.8l0,0q3.4,5.2 3.4,11.35zm-33.7,2.95l12.6,0q3.8,0 3.8,-3.2l0,0q0,-2.3 -1.75,-3.7q-1.75,-1.4 -5,-1.4q-3.25,0 -6.45,2.65q-3.2,2.65 -3.2,5.65l0,0zm40.2,8.6l0,-47.6q0,-2.3 0.15,-3.45q0.15,-1.15 0.85,-2.65l0,0q1.4,-2.7 7.8,-2.7l0,0q6.1,0 7.6,2.7l0,0q0.8,1.5 0.95,2.7q0.15,1.2 0.15,3.5l0,0l0,46.3q0,3.6 0.6,4.55q0.6,0.95 2.65,0.95q2.05,0 2.75,0.15q0.7,0.15 1.7,0.85l0,0q2,1.3 2,7.1l0,0q0,6.3 -2,7.7l0,0q-2.6,1.8 -12.4,0.6l0,0q-7.7,-1 -10,-5.1l0,0q-2.8,-4.9 -2.8,-15.6l0,0zm31.2,-5.2q0,-12 8.4,-19.8q8.4,-7.8 19.2,-7.8q10.8,0 19.1,7.75q8.3,7.75 8.3,19.75l0,0q0,8.3 -4.3,14.75q-4.3,6.45 -10.45,9.5q-6.15,3.05 -12.75,3.05q-6.6,0 -12.8,-3.25q-6.2,-3.25 -10.45,-9.6q-4.25,-6.35 -4.25,-14.35l0,0zm20.9,7.15q3.2,2.45 6.5,2.45q3.3,0 6.6,-2.5q3.3,-2.5 3.3,-7.4q0,-4.9 -3.1,-7.3q-3.1,-2.4 -6.7,-2.4q-3.6,0 -6.7,2.5q-3.1,2.5 -3.1,7.35q0,4.85 3.2,7.3zm74,15.55l0,-3q-3.8,5 -12.1,5q-8.3,0 -15.55,-7.65q-7.25,-7.65 -7.25,-17.85q0,-10.2 7.3,-17.9q7.3,-7.7 16,-7.7l0,0q3.4,0 6.2,1.25q2.8,1.25 3.85,2.3q1.05,1.05 1.65,1.95l0,0q0.3,-2.8 2.05,-4.25q1.75,-1.45 5.65,-1.45q3.9,0 5.7,0.6q1.8,0.6 2.55,2.05q0.75,1.45 0.9,2.55q0.15,1.1 0.15,3.4l0,0l0,41.4q0,11.5 -8,18.55q-8,7.05 -18,7.05l0,0q-7.6,0 -14.5,-3.7q-6.9,-3.7 -6.9,-6.7l0,0q0,-3.9 3,-6.9l0,0q1.9,-2.1 2.95,-2.9q1.05,-0.8 2.45,-0.8q1.4,0 2.9,1.2l0,0q4.8,3.7 10.4,3.7l0,0q3.8,0 6.2,-3q2.4,-3 2.4,-7.2l0,0zm-17.8,-23.45q0,3.25 2.55,5.85q2.55,2.6 6.2,2.6q3.65,0 6.05,-2.65q2.4,-2.65 2.4,-5.8q0,-3.15 -2.3,-5.9q-2.3,-2.75 -6.2,-2.75q-3.9,0 -6.3,2.7q-2.4,2.7 -2.4,5.95z"/>
   <rect id="svg_68" height="0" width="0" y="-339.52353" x="-884.44948"/>
  </g>
  <g id="svg_69">
   <rect id="svg_70" stroke="#ff8800" fill="rgba(255,136,0,0.1)" height="0" width="0" y="427" x="1056"/>
  </g>
  <g id="svg_71" class="selector-part">
   <rect id="svg_72" stroke="#3399ff" fill="rgba(168,202,236,0.5)" height="0" width="0" y="0" x="26"/>
  </g>
 </g>
</svg>